HIERARCHY
ROOT joint_Root
{
	OFFSET 0.0 0.0 0.0
	CHANNELS 6 Xposition Yposition Zposition Zrotation Xrotation Yrotation 
	JOINT Hips
	{
		OFFSET 4.5925 91.4895 -427.239
		CHANNELS 6 Xposition Yposition Zposition Zrotation Xrotation Yrotation 
		JOINT Spine
		{
			OFFSET 15.7357 0.0 0.0
			CHANNELS 6 Xposition Yposition Zposition Zrotation Xrotation Yrotation 
			JOINT Chest
			{
				OFFSET 8.98455 -0.406207 0.0
				CHANNELS 6 Xposition Yposition Zposition Zrotation Xrotation Yrotation 
				JOINT Neck
				{
					OFFSET 16.3773 0.0 0.0
					CHANNELS 6 Xposition Yposition Zposition Zrotation Xrotation Yrotation 
					JOINT Head
					{
						OFFSET 6.45672 0.0 0.0
						CHANNELS 6 Xposition Yposition Zposition Zrotation Xrotation Yrotation 
						End Site
						{
							OFFSET 0.0 0.0 0.0
						}
					}
				}
				JOINT Shoulder_L
				{
					OFFSET 12.9942 -0.242716 4.98039
					CHANNELS 6 Xposition Yposition Zposition Zrotation Xrotation Yrotation 
					JOINT UpperArm_L
					{
						OFFSET 5.34809 0.0 0.0
						CHANNELS 6 Xposition Yposition Zposition Zrotation Xrotation Yrotation 
						JOINT LowerArm_L
						{
							OFFSET 24.3286 1.87007e-05 0.0
							CHANNELS 6 Xposition Yposition Zposition Zrotation Xrotation Yrotation 
							JOINT Hand_L
							{
								OFFSET 22.2916 0.0 0.0
								CHANNELS 6 Xposition Yposition Zposition Zrotation Xrotation Yrotation 
								End Site
								{
									OFFSET 0.0 0.0 0.0
								}
							}
						}
					}
				}
				JOINT Shoulder_R
				{
					OFFSET 12.9945 -0.242716 -4.98039
					CHANNELS 6 Xposition Yposition Zposition Zrotation Xrotation Yrotation 
					JOINT UpperArm_R
					{
						OFFSET -5.34813 0.0 0.0
						CHANNELS 6 Xposition Yposition Zposition Zrotation Xrotation Yrotation 
						JOINT LowerArm_R
						{
							OFFSET -24.3289 0.000322201 0.0
							CHANNELS 6 Xposition Yposition Zposition Zrotation Xrotation Yrotation 
							JOINT Hand_R
							{
								OFFSET -22.2915 -0.000108084 0.0
								CHANNELS 6 Xposition Yposition Zposition Zrotation Xrotation Yrotation 
								End Site
								{
									OFFSET 0.0 0.0 0.0
								}
							}
						}
					}
				}
			}
		}
		JOINT UpperLeg_L
		{
			OFFSET -2.19248 -6.46944 0.0
			CHANNELS 6 Xposition Yposition Zposition Zrotation Xrotation Yrotation 
			JOINT LowerLeg_L
			{
				OFFSET 39.0811 0.0 -1.23785e-05
				CHANNELS 6 Xposition Yposition Zposition Zrotation Xrotation Yrotation 
				JOINT Foot_L
				{
					OFFSET 40.9854 0.0 -1.26872e-05
					CHANNELS 6 Xposition Yposition Zposition Zrotation Xrotation Yrotation 
					JOINT Toes_L
					{
						OFFSET 11.7543 0.0 0.0
						CHANNELS 6 Xposition Yposition Zposition Zrotation Xrotation Yrotation 
						End Site
						{
							OFFSET 0.0 0.0 0.0
						}
					}
				}
			}
		}
		JOINT UpperLeg_R
		{
			OFFSET -2.19251 6.46944 0.0
			CHANNELS 6 Xposition Yposition Zposition Zrotation Xrotation Yrotation 
			JOINT LowerLeg_R
			{
				OFFSET -39.0811 -0.00228153 -0.0401928
				CHANNELS 6 Xposition Yposition Zposition Zrotation Xrotation Yrotation 
				JOINT Foot_R
				{
					OFFSET -40.9854 0.0 0.0
					CHANNELS 6 Xposition Yposition Zposition Zrotation Xrotation Yrotation 
					JOINT Toes_R
					{
						OFFSET -11.7543 0.0 0.0
						CHANNELS 6 Xposition Yposition Zposition Zrotation Xrotation Yrotation 
						End Site
						{
							OFFSET 0.0 0.0 0.0
						}
					}
				}
			}
		}
	}
}
MOTION
Frames:	4
Frame Time:	0.0333333
0.000000 0.000000 0.000000 0.000000 0.000000 -0.000000 -0.661425 90.885300 0.557357 89.299500 -3.176040 9.504010 15.735700 0.000005 -0.000001 86.372600 81.809100 -85.578500 8.984550 -0.406207 -0.000000 8.591630 -1.025720 1.663770 16.377300 -0.000001 -0.000001 3.226850 -2.895900 3.997280 6.456720 -0.000001 -0.000000 -8.693850 -2.181340 6.433170 12.994200 -0.242716 4.980390 -91.820500 6.533910 -74.393400 5.348090 -0.000007 -0.000001 -59.687700 42.748200 -18.300900 24.328600 0.000019 0.000005 8.945130 22.853300 -22.061900 22.291600 -0.000001 0.000005 8.264510 5.293550 0.252694 12.994500 -0.242716 -4.980390 88.479000 12.132100 -82.799200 -5.348130 -0.000001 -0.000004 -60.003300 35.185000 -12.788000 -24.328900 0.000322 -0.000009 1.410230 4.347860 -18.002500 -22.291500 -0.000108 -0.000004 13.405000 5.387160 -2.524750 -2.192480 -6.469440 -0.000000 -174.628000 -12.772800 0.326001 39.081100 -0.000007 -0.000012 -0.180865 0.311632 30.130200 40.985400 -0.000006 -0.000013 0.238095 4.762880 -70.664000 11.754300 -0.000000 0.000003 -0.000180 -0.001691 -16.641500 -2.192510 6.469440 -0.000001 174.385000 20.453600 -178.500000 -39.081100 -0.002282 -0.040193 -0.194693 0.353828 29.231000 -40.985400 0.000008 0.000006 3.736450 14.676200 -70.902900 -11.754300 -0.000006 -0.000006 -0.002622 -0.036247 -18.047100
0.000000 0.000000 0.000000 0.000000 0.000000 -0.000000 -0.777496 90.877900 0.459454 89.322200 -3.114750 9.661300 15.735700 0.000005 -0.000001 86.022600 81.683300 -85.152500 8.984550 -0.406207 -0.000000 8.837970 -1.139770 1.826710 16.377300 -0.000001 -0.000001 3.542890 -3.006530 4.025460 6.456720 -0.000001 -0.000000 -7.653020 -2.203340 6.765610 12.994200 -0.242716 4.980390 -91.803800 6.396740 -74.215900 5.348090 -0.000007 -0.000001 -59.529400 42.108000 -18.482200 24.328600 0.000019 0.000005 9.787390 24.059000 -22.934300 22.291600 -0.000001 0.000005 7.922550 5.299150 0.095649 12.994500 -0.242716 -4.980390 88.446700 12.104600 -82.631800 -5.348130 -0.000001 -0.000004 -60.074500 35.214200 -12.847700 -24.328900 0.000322 -0.000009 1.404970 4.329700 -18.010000 -22.291500 -0.000108 -0.000004 13.243100 5.387660 -2.541160 -2.192480 -6.469440 -0.000000 -174.558000 -12.674700 0.373027 39.081100 -0.000007 -0.000012 -0.183080 0.314670 30.191800 40.985400 -0.000006 -0.000013 0.169478 4.792480 -70.604900 11.754300 -0.000000 0.000003 -0.000178 -0.001677 -16.641000 -2.192510 6.469440 -0.000001 174.410000 20.449700 -178.443000 -39.081100 -0.002282 -0.040193 -0.197234 0.356938 29.328700 -40.985400 0.000008 0.000006 3.822510 14.600500 -70.923800 -11.754300 -0.000006 -0.000006 -0.002666 -0.036760 -18.068000
0.000000 0.000000 0.000000 0.000000 0.000000 -0.000000 -0.897626 90.870600 0.353664 89.348700 -3.067370 9.804570 15.735700 0.000005 -0.000001 85.612900 81.558800 -84.665300 8.984550 -0.406207 -0.000000 9.079940 -1.273670 1.994970 16.377300 -0.000001 -0.000001 3.903250 -3.119750 4.092050 6.456720 -0.000001 -0.000000 -6.529630 -2.250510 7.033930 12.994200 -0.242716 4.980390 -91.819300 6.348000 -73.972000 5.348090 -0.000007 -0.000001 -59.388200 40.413200 -18.441900 24.328600 0.000019 0.000005 11.116300 25.621900 -24.435400 22.291600 -0.000001 0.000005 7.163840 5.309340 -0.191379 12.994500 -0.242716 -4.980390 88.415500 12.087400 -82.474900 -5.348130 -0.000001 -0.000004 -60.080700 35.158800 -12.912000 -24.328900 0.000322 -0.000009 1.407050 4.284110 -18.214000 -22.291500 -0.000108 -0.000004 13.344700 5.387960 -2.550470 -2.192480 -6.469440 -0.000000 -174.503000 -12.582700 0.405225 39.081100 -0.000007 -0.000012 -0.181802 0.311724 30.251600 40.985400 -0.000006 -0.000013 0.089128 4.775330 -70.542900 11.754300 -0.000000 0.000003 -0.000172 -0.001631 -16.639300 -2.192510 6.469440 -0.000001 174.470000 20.419500 -178.422000 -39.081100 -0.002282 -0.040193 -0.194993 0.351389 29.437300 -40.985400 0.000008 0.000006 3.908700 14.463700 -70.939700 -11.754300 -0.000006 -0.000006 -0.002629 -0.036330 -18.050500
0.000000 0.000000 0.000000 0.000000 0.000000 -0.000000 -1.036760 90.864600 0.263066 89.374900 -3.116540 9.971520 15.735700 0.000005 -0.000001 85.550400 81.445500 -84.527500 8.984550 -0.406207 -0.000000 9.305830 -1.306270 2.150400 16.377300 -0.000001 -0.000001 4.428120 -3.247200 4.195390 6.456720 -0.000001 -0.000000 -5.539410 -2.313090 7.291240 12.994200 -0.242716 4.980390 -91.852100 6.327420 -73.647900 5.348090 -0.000007 -0.000001 -58.833100 38.334700 -18.599000 24.328600 0.000019 0.000005 12.133500 26.184700 -25.975800 22.291600 -0.000001 0.000005 6.495330 5.312450 -0.279340 12.994500 -0.242716 -4.980390 88.369300 12.061700 -82.241700 -5.348130 -0.000001 -0.000004 -60.108900 35.064200 -12.965900 -24.328900 0.000322 -0.000009 1.390940 4.170580 -18.475800 -22.291500 -0.000108 -0.000004 13.392900 5.388410 -2.564590 -2.192480 -6.469440 -0.000000 -174.384000 -12.606500 0.506545 39.081100 -0.000007 -0.000012 -0.187754 0.321519 30.283400 40.985400 -0.000006 -0.000013 -0.012402 4.782330 -70.480000 11.754300 -0.000000 0.000003 -0.000178 -0.001679 -16.641100 -2.192510 6.469440 -0.000001 174.542000 20.316500 -178.366000 -39.081100 -0.002282 -0.040193 -0.193586 0.347584 29.529600 -40.985400 0.000008 0.000006 4.013190 14.357900 -70.961300 -11.754300 -0.000006 -0.000006 -0.002627 -0.036309 -18.049600
